<svg width="31" height="31" viewBox="0 0 31 31" fill="none" xmlns="http://www.w3.org/2000/svg">
<path d="M29.2761 13.5642L29.2741 13.5621L17.0352 1.32498C16.5135 0.803027 15.8199 0.515625 15.0822 0.515625C14.3445 0.515625 13.6509 0.802852 13.129 1.32475L0.896467 13.5557C0.892365 13.5598 0.888263 13.5641 0.884161 13.5683C-0.187159 14.6456 -0.185284 16.3935 0.889435 17.4681C1.38038 17.9593 2.02891 18.2438 2.72226 18.2736C2.75039 18.2763 2.77881 18.2777 2.8074 18.2777H3.29519V27.2835C3.29519 29.0657 4.7453 30.5156 6.52802 30.5156H11.3162C11.8015 30.5156 12.1952 30.1222 12.1952 29.6367V22.5762C12.1952 21.7629 12.8568 21.1015 13.6701 21.1015H16.4943C17.3077 21.1015 17.9691 21.763 17.9691 22.5762V29.6367C17.9691 30.1222 18.3626 30.5156 18.8481 30.5156H23.6364C25.4191 30.5156 26.8692 29.0657 26.8692 27.2836V18.2777H27.3215C28.0591 18.2777 28.7527 17.9905 29.2748 17.4687C30.3507 16.3922 30.3511 14.6413 29.2761 13.5642Z" fill="white"/>
</svg>
