<svg width="45" height="45" viewBox="0 0 45 45" fill="none" xmlns="http://www.w3.org/2000/svg">
<path d="M22.7853 4.43545C28.6687 4.43545 29.3633 4.45618 31.6855 4.56504C33.8315 4.66353 34.9978 5.02119 35.7753 5.32184C36.8017 5.72097 37.5377 6.19786 38.3101 6.97021C39.0824 7.74256 39.5593 8.47344 39.9585 9.50497C40.2591 10.2825 40.6168 11.4488 40.7153 13.5948C40.8189 15.917 40.8449 16.6168 40.8449 22.495C40.8449 28.3731 40.8241 29.0729 40.7153 31.3952C40.6168 33.5411 40.2591 34.7075 39.9585 35.485C39.5593 36.5113 39.0824 37.2474 38.3101 38.0198C37.5377 38.7921 36.8069 39.269 35.7753 39.6681C34.9978 39.9688 33.8315 40.3264 31.6855 40.4249C29.3633 40.5286 28.6687 40.5545 22.7853 40.5545C16.902 40.5545 16.2074 40.5338 13.8851 40.4249C11.7392 40.3264 10.5728 39.9688 9.79531 39.6681C8.76897 39.269 8.0329 38.7921 7.26055 38.0198C6.4882 37.2474 6.01131 36.5165 5.61218 35.485C5.31153 34.7075 4.95387 33.5411 4.85538 31.3952C4.75171 29.0729 4.72579 28.3731 4.72579 22.495C4.72579 16.6168 4.74653 15.917 4.85538 13.5948C4.95387 11.4488 5.31153 10.2825 5.61218 9.50497C6.01131 8.47863 6.4882 7.74256 7.26055 6.97021C8.0329 6.19786 8.76379 5.72097 9.79531 5.32184C10.5728 5.02119 11.7392 4.66353 13.8851 4.56504C16.2074 4.46137 16.9072 4.43545 22.7853 4.43545ZM22.7853 0.464844C16.8035 0.464844 16.0519 0.490759 13.7037 0.599614C11.3608 0.708468 9.75903 1.0765 8.35428 1.62596C6.90807 2.19097 5.67957 2.94259 4.45106 4.16591C3.22774 5.38923 2.47094 6.61773 1.91112 8.06913C1.36684 9.46869 0.993629 11.0704 0.884774 13.4186C0.775919 15.7667 0.75 16.5183 0.75 22.5002C0.75 28.482 0.775919 29.2336 0.884774 31.5818C0.993629 33.9247 1.36166 35.5265 1.91112 36.9312C2.47613 38.3774 3.22774 39.6059 4.45106 40.8344C5.67438 42.0577 6.90289 42.8145 8.35428 43.3744C9.75385 43.9186 11.3556 44.2919 13.7037 44.4007C16.0519 44.5096 16.8035 44.5355 22.7853 44.5355C28.7672 44.5355 29.5188 44.5096 31.8669 44.4007C34.2099 44.2919 35.8116 43.9238 37.2164 43.3744C38.6626 42.8094 39.8911 42.0577 41.1196 40.8344C42.3429 39.6111 43.0997 38.3826 43.6595 36.9312C44.2038 35.5316 44.577 33.9299 44.6859 31.5818C44.7947 29.2336 44.8206 28.482 44.8206 22.5002C44.8206 16.5183 44.7947 15.7667 44.6859 13.4186C44.577 11.0756 44.209 9.47387 43.6595 8.06913C43.0945 6.62291 42.3429 5.39441 41.1196 4.16591C39.8963 2.94259 38.6678 2.18579 37.2164 1.62596C35.8168 1.08169 34.2151 0.708468 31.8669 0.599614C29.5188 0.490759 28.7672 0.464844 22.7853 0.464844Z" fill="#555861"/>
<path d="M22.7851 11.1792C16.539 11.1792 11.4746 16.2435 11.4746 22.4897C11.4746 28.7359 16.539 33.8003 22.7851 33.8003C29.0313 33.8003 34.0957 28.7359 34.0957 22.4897C34.0957 16.2435 29.0313 11.1792 22.7851 11.1792ZM22.7851 29.8348C18.7316 29.8348 15.44 26.5485 15.44 22.4897C15.44 18.431 18.7264 15.1446 22.7851 15.1446C26.8439 15.1446 30.1303 18.431 30.1303 22.4897C30.1303 26.5485 26.8439 29.8348 22.7851 29.8348Z" fill="#555861"/>
<path d="M34.5469 13.3771C36.007 13.3771 37.1906 12.1935 37.1906 10.7335C37.1906 9.27343 36.007 8.08984 34.5469 8.08984C33.0869 8.08984 31.9033 9.27343 31.9033 10.7335C31.9033 12.1935 33.0869 13.3771 34.5469 13.3771Z" fill="#555861"/>
</svg>
