<svg width="30" height="31" viewBox="0 0 30 31" fill="none" xmlns="http://www.w3.org/2000/svg">
<path d="M17.069 30.5C19.1501 30.5 20.9325 29.2251 21.6628 27.4264C19.2133 26.678 17.4875 24.4106 17.4875 21.8375C17.4875 21.4701 17.5336 21.1117 17.6007 20.7599C17.4241 20.7408 17.2467 20.7311 17.069 20.7307C14.988 20.7307 13.2062 22.0056 12.4746 23.8036C14.9248 24.5521 16.6513 26.8201 16.6513 29.3926C16.6513 29.7568 16.6052 30.1157 16.5374 30.4708C16.7124 30.4896 16.8894 30.5 17.069 30.5ZM29.9444 2.20604C29.9839 2.16839 30.0016 2.10737 29.9997 2.03078C29.9931 1.80034 29.8043 1.4219 29.4338 1.05644C29.2391 0.858195 29.0086 0.697496 28.7542 0.582585C28.745 0.578041 28.7338 0.569602 28.7246 0.565707C28.6366 0.528051 28.5426 0.505863 28.4469 0.500146C28.3693 0.498199 28.3087 0.515725 28.2693 0.554023L26.8988 1.9055L28.5739 3.55816L29.9444 2.20604ZM26.2013 2.59357L19.7679 8.94134L17.6401 12.5991L21.4477 10.5888L27.8765 4.24688L26.2013 2.59357Z" fill="white"/>
<path d="M15.6645 29.3926C15.6645 27.2537 14.2348 25.368 12.2024 24.7384C12.19 24.8074 12.1791 24.8767 12.1695 24.9461C12.1603 25.0143 12.1485 25.0811 12.1419 25.1493C12.1314 25.268 12.1252 25.3871 12.1234 25.5063C12.1228 25.5433 12.1188 25.579 12.1188 25.6154C12.1188 25.8614 12.1425 26.1022 12.1781 26.3404L12.1965 26.4534C12.2386 26.6897 12.2952 26.9214 12.3708 27.146L12.386 27.1869C12.4649 27.4154 12.5603 27.6374 12.6715 27.8503L12.6827 27.873C12.7946 28.0827 12.9229 28.2826 13.063 28.4741L13.1262 28.5572C13.267 28.7415 13.4189 28.9181 13.5847 29.0817C13.5979 29.0947 13.613 29.1057 13.6269 29.1187C13.7756 29.2621 13.9367 29.3933 14.1039 29.5179C14.1493 29.5516 14.1933 29.5867 14.2407 29.6185C14.4138 29.7386 14.596 29.847 14.7848 29.945C14.8408 29.9736 14.8993 29.9995 14.9566 30.0268C15.1382 30.1112 15.325 30.1884 15.5185 30.2514C15.5402 30.2579 15.5612 30.2676 15.5836 30.2748C15.6369 29.9853 15.6645 29.6906 15.6645 29.3926ZM5.40516 29.9905L11.3273 24.1477L11.3477 24.0685C11.3543 24.0477 11.3556 24.0257 11.3615 24.0055C11.3629 24.001 11.3662 23.999 11.3675 23.9945C11.6551 23.0182 12.1946 22.1323 12.9333 21.4235C13.6719 20.7146 14.5845 20.2071 15.5816 19.9505L21.4255 14.1843C21.7688 13.8492 21.9783 13.4033 22.0155 12.9282C22.0527 12.4531 21.9152 11.9807 21.6281 11.5976L16.5883 14.259C16.4939 14.309 16.3856 14.3273 16.2798 14.311C16.174 14.2947 16.0764 14.2447 16.002 14.1687C15.9275 14.0929 15.8799 13.9952 15.8666 13.8904C15.8533 13.7856 15.875 13.6794 15.9284 13.5878L18.7398 8.75311C18.3985 8.50629 17.9865 8.37286 17.5633 8.37207H17.5601C17.0179 8.37207 16.5073 8.57979 16.1238 8.95953L0.102111 24.7657C-0.272919 25.1357 0.394239 26.6209 1.95291 28.1586C3.51883 29.7029 5.03013 30.3624 5.40516 29.9905ZM22.019 25.5952C22.0165 25.3648 21.9974 25.1349 21.9617 24.9072C21.9551 24.8598 21.9486 24.8118 21.9394 24.7644C21.8994 24.5374 21.8431 24.3135 21.7709 24.0945C21.763 24.0705 21.7532 24.0477 21.7446 24.0237C21.6696 23.8097 21.5797 23.601 21.4755 23.3993L21.4512 23.3493C21.3219 23.109 21.1727 22.8798 21.0051 22.6638C20.8679 22.4838 20.7184 22.3134 20.5577 22.1536C20.5379 22.1341 20.5156 22.1166 20.4952 22.0971C20.3525 21.9626 20.2017 21.8367 20.0438 21.72C19.9931 21.6823 19.9438 21.6434 19.8925 21.6077C19.7219 21.4902 19.5439 21.3835 19.3595 21.2883C19.2984 21.2572 19.2358 21.2292 19.1733 21.2C18.9972 21.1173 18.8162 21.0451 18.6312 20.9839C18.6049 20.9748 18.5805 20.9644 18.5542 20.956C18.3404 22.1265 18.5656 23.3338 19.188 24.3525C19.8103 25.3711 20.7871 26.1315 21.9361 26.4917C21.9533 26.3984 21.9678 26.3047 21.9795 26.2106C21.9841 26.1717 21.9913 26.134 21.9953 26.0951C22.0112 25.9356 22.0194 25.7756 22.0196 25.6154L22.019 25.5952Z" fill="white"/>
</svg>
