<svg width="34" height="31" viewBox="0 0 34 31" fill="none" xmlns="http://www.w3.org/2000/svg">
<path d="M26.4691 0.618673C26.3972 0.563316 26.3132 0.525878 26.2241 0.509449C26.135 0.493019 26.0432 0.498069 25.9564 0.524182L5.35335 6.41395C5.25634 6.4392 5.16768 6.4896 5.09629 6.5601C5.02491 6.6306 4.97332 6.71871 4.94672 6.81554C4.91892 6.91239 4.91624 7.01474 4.93893 7.11292C4.96161 7.21109 5.00892 7.30184 5.07637 7.37659C7.57892 10.0536 9.28569 13.3778 10.0043 16.9746C10.723 20.5715 10.4249 24.298 9.14382 27.7342C7.74125 19.765 3.90304 15.2991 2.2288 13.6809L6.39643 12.2459C6.46999 12.2206 6.53788 12.1812 6.59621 12.1297C6.65455 12.0782 6.70219 12.0157 6.73642 11.9457C6.77065 11.8758 6.79079 11.7998 6.7957 11.722C6.80062 11.6443 6.7902 11.5663 6.76505 11.4926C6.7399 11.4189 6.7005 11.3508 6.64912 11.2924C6.59773 11.2339 6.53536 11.1862 6.46556 11.1519C6.39576 11.1176 6.3199 11.0974 6.24231 11.0925C6.16473 11.0875 6.08694 11.098 6.01338 11.1232L0.891054 12.889C0.791581 12.9254 0.703599 12.9877 0.636185 13.0696C0.568772 13.1514 0.524367 13.2498 0.507552 13.3546C0.490737 13.4593 0.50212 13.5667 0.540528 13.6656C0.578936 13.7645 0.642978 13.8513 0.726046 13.9172C0.790871 13.9644 7.03348 18.9388 8.27694 29.9624C8.28643 30.074 8.32753 30.1805 8.39539 30.2694C8.46326 30.3583 8.55506 30.426 8.65999 30.4644C8.78333 30.5098 8.91837 30.5118 9.04305 30.4703L20.0732 26.9729C19.368 25.7436 19.1098 24.3073 19.3425 22.9086L13.6297 24.7985C13.4831 24.8404 13.3259 24.8237 13.1913 24.752C13.0567 24.6803 12.955 24.559 12.9077 24.4138C12.8604 24.2685 12.8711 24.1105 12.9376 23.973C13.0041 23.8355 13.1212 23.7292 13.2643 23.6764L19.7544 21.5267C20.2047 20.5924 20.8989 19.3563 21.9473 18.7734C21.9473 18.7734 23.2208 18.5077 23.6038 20.0963C23.6958 20.5015 23.6197 21.183 23.7688 21.3725C23.8562 21.3893 23.9463 21.3837 24.0309 21.3564C24.1155 21.329 24.1918 21.2808 24.2529 21.216C24.314 21.1513 24.3578 21.0722 24.3803 20.986C24.4028 20.8998 24.4033 20.8093 24.3817 20.7229C24.3209 20.4964 24.2168 20.2838 24.0753 20.0969C23.7698 19.3119 23.7122 18.4519 23.9103 17.633L13.6297 21.0359C13.5553 21.0634 13.4762 21.0755 13.397 21.0716C13.3179 21.0677 13.2403 21.0478 13.169 21.0132C13.0977 20.9785 13.0341 20.9299 12.982 20.87C12.9299 20.8102 12.8904 20.7404 12.8658 20.6649C12.8412 20.5894 12.8321 20.5098 12.8389 20.4306C12.8458 20.3515 12.8685 20.2746 12.9057 20.2045C12.9429 20.1344 12.9938 20.0725 13.0555 20.0225C13.1171 19.9726 13.1881 19.9356 13.2643 19.9138L24.5532 16.1737C25.281 14.9885 28.7303 12.6327 29.2165 15.1875C29.2283 15.4465 29.1692 15.7039 29.0456 15.9316C28.8411 16.3242 28.7804 16.7762 28.8741 17.209C28.9678 17.6418 29.2099 18.028 29.5583 18.3004C29.8587 18.4914 30.1339 18.7195 30.3774 18.9795L32.2226 19.2872C32.7282 19.3664 32.9792 19.7993 33.3069 20.2322C34.858 7.01693 26.5581 0.67773 26.4697 0.618673H26.4691ZM23.8932 3.65539C24.4884 2.72229 25.726 2.97033 26.3624 3.25971C26.5046 3.32471 26.6153 3.44367 26.67 3.59042C26.7247 3.73717 26.719 3.89968 26.6541 4.04222C26.5893 4.18475 26.4706 4.29562 26.3241 4.35045C26.1777 4.40527 26.0155 4.39955 25.8733 4.33455C24.433 3.73689 24.565 5.0391 25.8851 4.93103C26.0946 4.91993 26.3041 4.9512 26.5013 5.02297C26.6985 5.09473 26.8792 5.20553 27.0328 5.34877C27.1864 5.492 27.3096 5.66474 27.3951 5.85669C27.4807 6.04865 27.5268 6.25589 27.5308 6.46609C27.5347 6.67628 27.4964 6.88512 27.4182 7.08017C27.3399 7.27522 27.2233 7.45249 27.0752 7.60143C26.9271 7.75036 26.7507 7.86791 26.5563 7.94708C26.362 8.02625 26.1538 8.06541 25.944 8.06224C25.2062 8.05751 23.8337 7.54726 24.4295 6.6803C24.4813 6.62289 24.5439 6.57628 24.6137 6.54314C24.6836 6.50999 24.7592 6.49095 24.8364 6.48711C24.9135 6.48327 24.9907 6.49471 25.0635 6.52076C25.1362 6.54682 25.2031 6.58698 25.2604 6.63896C25.4737 6.82794 26.0359 7.02874 26.2858 6.71574C26.3217 6.67293 26.3473 6.62246 26.3606 6.56821C26.374 6.51395 26.3748 6.45735 26.363 6.40273C26.3336 6.31096 26.2737 6.23208 26.1933 6.17929C26.1128 6.12651 26.0167 6.10302 25.921 6.11276C24.5143 6.25922 23.1041 5.04501 23.8932 3.65539ZM18.4697 5.38577C18.5991 5.29882 18.7574 5.2662 18.9106 5.29491C19.0637 5.32362 19.1996 5.41137 19.2889 5.53932L20.2377 6.94547V5.46313C20.2379 5.33464 20.2799 5.20973 20.3575 5.10738C20.435 5.00504 20.5437 4.93085 20.6672 4.8961C20.7906 4.86135 20.922 4.86793 21.0414 4.91485C21.1607 4.96177 21.2615 5.04645 21.3285 5.15604L21.9885 6.24269L21.9532 4.73082C21.9516 4.65323 21.9653 4.57609 21.9935 4.50381C22.0217 4.43153 22.0639 4.36552 22.1175 4.30956C22.1712 4.25359 22.2353 4.20877 22.3062 4.17764C22.3772 4.14652 22.4536 4.1297 22.531 4.12815C22.6874 4.12501 22.8386 4.18426 22.9514 4.29285C23.0641 4.40145 23.1293 4.55049 23.1324 4.7072L23.2208 8.41068C23.2211 8.5391 23.1798 8.66417 23.1031 8.76702C23.0264 8.86988 22.9183 8.94495 22.7953 8.98094C22.6723 9.01692 22.5409 9.01187 22.421 8.96653C22.3011 8.9212 22.1992 8.83804 22.1305 8.72958L21.4175 7.56616V8.87132C21.4165 8.99673 21.3757 9.11857 21.301 9.21915C21.2262 9.31974 21.1214 9.39384 21.0018 9.4307C20.8822 9.46756 20.754 9.46527 20.6357 9.42415C20.5175 9.38304 20.4154 9.30524 20.3443 9.20204L18.3106 6.20784C18.2671 6.14348 18.2367 6.07114 18.2211 5.99498C18.2055 5.91881 18.2051 5.84031 18.2199 5.76399C18.2347 5.68766 18.2644 5.61502 18.3073 5.55021C18.3501 5.48541 18.4053 5.42973 18.4697 5.38636V5.38577ZM14.8384 6.65609C14.8759 6.58445 14.9277 6.52129 14.9905 6.4705C15.0534 6.41971 15.1259 6.38238 15.2037 6.3608L17.0666 5.85291C17.2158 5.81385 17.3744 5.83524 17.5081 5.91245C17.6417 5.98967 17.7396 6.1165 17.7807 6.26551C17.8217 6.41453 17.8026 6.57375 17.7274 6.70873C17.6522 6.84372 17.527 6.94361 17.3789 6.98681L16.1237 7.33525L16.3417 7.96775L17.1432 7.70199C17.2163 7.67723 17.2936 7.66722 17.3706 7.67254C17.4476 7.67786 17.5228 7.69841 17.5918 7.733C17.6608 7.76759 17.7223 7.81554 17.7728 7.87407C17.8232 7.93261 17.8616 8.00057 17.8857 8.07405C17.9344 8.22364 17.9221 8.38646 17.8514 8.52697C17.7807 8.66749 17.6575 8.77429 17.5086 8.82408L16.7248 9.08393L16.9546 9.74596L18.1922 9.35618C18.3386 9.31604 18.4949 9.3343 18.6283 9.40713C18.7616 9.47996 18.8617 9.6017 18.9074 9.74683C18.9531 9.89195 18.941 10.0492 18.8736 10.1855C18.8062 10.3219 18.6887 10.4268 18.5457 10.4783C18.4491 10.4995 16.6381 11.1143 16.5833 11.0747C16.4607 11.0744 16.3412 11.0354 16.2418 10.9633C16.1424 10.8913 16.0681 10.7898 16.0294 10.6732L14.803 7.12323C14.7765 7.04722 14.7659 6.96654 14.772 6.88625C14.7781 6.80596 14.8007 6.72721 14.8384 6.65609ZM11.7669 9.8936L12.639 12.0498C12.6902 12.1931 12.684 12.3507 12.6219 12.4896C12.5598 12.6284 12.4466 12.7379 12.3059 12.7951C12.1651 12.8523 12.0078 12.8527 11.8667 12.7964C11.7256 12.74 11.6117 12.6312 11.5488 12.4927L9.93409 8.50517C9.88877 8.38787 9.88185 8.25918 9.91432 8.13768C9.94679 8.01619 10.017 7.90819 10.1147 7.82929C10.2125 7.7504 10.3327 7.7047 10.4581 7.6988C10.5835 7.6929 10.7075 7.72711 10.8122 7.79648L13.5649 9.69871L12.84 7.66656C12.7901 7.51992 12.7997 7.35946 12.867 7.21992C12.9342 7.08039 13.0535 6.97299 13.1992 6.92097C13.3448 6.86895 13.505 6.87651 13.6452 6.94199C13.7853 7.00748 13.8941 7.12563 13.9479 7.27087L15.2921 11.0281C15.3322 11.1456 15.3344 11.2727 15.2986 11.3915C15.2628 11.5103 15.1907 11.6149 15.0925 11.6906C14.9942 11.7662 14.8748 11.809 14.751 11.8131C14.6272 11.8171 14.5052 11.7822 14.4023 11.7132L11.7669 9.8936ZM29.794 11.9258L13.6297 17.2781C13.5705 17.2965 13.509 17.3065 13.447 17.3076C13.3084 17.3049 13.1751 17.2534 13.0705 17.1621C12.966 17.0709 12.8967 16.9457 12.875 16.8084C12.8532 16.6712 12.8803 16.5306 12.9514 16.4114C13.0226 16.2921 13.1334 16.2017 13.2643 16.156L29.4227 10.8037C29.5704 10.7573 29.7304 10.771 29.8681 10.8417C30.0058 10.9124 30.1103 11.0345 30.159 11.1817C30.2077 11.329 30.1967 11.4894 30.1285 11.6286C30.0602 11.7678 29.9401 11.8745 29.794 11.9258Z" fill="white"/>
<path d="M32.0806 20.5747C31.9392 20.4247 31.918 20.3444 31.8272 20.3857C31.8154 20.3927 31.8065 20.4037 31.8021 20.4167C31.7978 20.4298 31.7983 20.4439 31.8036 20.4566C32.3434 21.7027 31.2461 22.7846 30.3769 23.1024C30.4328 22.8855 30.4702 22.6642 30.4889 22.4409C30.5256 21.9097 30.4388 21.3772 30.2353 20.8853C30.0318 20.3934 29.7171 19.9556 29.3161 19.6062C28.9414 19.342 28.5973 19.0368 28.2901 18.6961C27.3844 17.6969 27.6331 16.0722 28.0308 15.311C28.036 15.2997 28.0378 15.2872 28.0361 15.275C28.0343 15.2628 28.0291 15.2513 28.021 15.2419C28.0129 15.2326 28.0023 15.2258 27.9905 15.2223C27.9787 15.2188 27.9661 15.2189 27.9542 15.2224C25.9341 15.7574 25.2316 16.5724 24.7943 17.8451C24.7033 18.1678 24.6955 18.5084 24.7718 18.8349C24.8481 19.1615 25.0059 19.4632 25.2304 19.7119C25.4642 20.0446 25.5842 20.4442 25.5725 20.851C25.5608 21.2577 25.4181 21.6498 25.1656 21.9685C24.6352 22.6258 23.433 22.8224 22.8614 22.122C22.5657 21.6869 22.4093 21.172 22.4129 20.6456C22.3728 20.1832 22.4836 19.9534 22.3952 19.8838C21.6411 20.4884 21.0705 21.2921 20.7476 22.2043C20.4247 23.1164 20.3624 24.1008 20.5678 25.0465C21.7723 29.9335 28.7846 30.879 31.8154 26.393C33.2693 24.2032 33.2704 22.0405 32.0806 20.5747Z" fill="white"/>
</svg>
