<svg width="31" height="31" viewBox="0 0 31 31" fill="none" xmlns="http://www.w3.org/2000/svg">
<path d="M25.8205 3.39592H23.2637V1.95577C23.2637 1.16042 22.6533 0.515625 21.9003 0.515625C21.1474 0.515625 20.5369 1.16042 20.5369 1.95577V3.39592H9.62778V1.95577C9.62778 1.16042 9.01734 0.515625 8.26437 0.515625C7.5114 0.515625 6.90097 1.16042 6.90097 1.95577V3.39592H4.34419C1.99131 3.39862 0.0852272 5.41199 0.0820312 7.89663V12.0375H30.0814V7.89663C30.0782 5.41199 28.1721 3.39862 25.8199 3.39524L25.8205 3.39592ZM0.0820312 26.0142C0.0852272 28.4989 1.99131 30.5122 4.34355 30.5156H25.8205C28.1728 30.5122 30.0788 28.4989 30.082 26.0142V13.2312H0.0820312V26.0142ZM10.0266 19.6865C10.5591 19.1241 11.422 19.1241 11.9551 19.6865L13.718 21.5473L18.2083 16.8055C18.7497 16.2526 19.6133 16.2688 20.1368 16.8407C20.6469 17.399 20.6469 18.2835 20.1368 18.8419L14.6825 24.6031C14.1501 25.1655 13.2872 25.1655 12.7541 24.6031L10.0266 21.7222C9.49418 21.1597 9.49418 20.2483 10.0266 19.6852V19.6865Z" fill="white"/>
</svg>
