<svg width="48" height="39" viewBox="0 0 48 39" fill="none" xmlns="http://www.w3.org/2000/svg">
<path d="M47.6586 0.838755C47.4889 0.346335 47.2865 0.208457 46.9731 0.0902766C46.2876 -0.172348 45.1255 0.221592 45.1255 0.221592C45.1255 0.221592 3.93736 15.1124 1.58711 16.7603C1.07789 17.1149 0.908152 17.3184 0.82981 17.5613C0.425044 18.7366 1.69157 19.2553 1.69157 19.2553L12.3069 22.735C12.3069 22.735 12.7051 22.7941 12.8422 22.7022C15.2578 21.1659 37.1412 7.27305 38.4012 6.80689C38.6036 6.7478 38.7472 6.81346 38.7081 6.95133C38.2054 8.73718 19.201 25.7224 19.201 25.7224C19.201 25.7224 19.1291 25.8143 19.0834 25.9194L19.0573 25.9062L18.065 36.4965C18.065 36.4965 17.6472 39.74 20.8788 36.4965C23.1572 34.2052 25.3573 32.2946 26.4606 31.3622C30.11 33.8966 34.0402 36.7001 35.7311 38.1642C36.5798 38.8996 37.2979 39.0177 37.8789 38.998C39.4849 38.9389 39.9354 37.1597 39.9354 37.1597C39.9354 37.1597 47.4432 6.78062 47.6912 2.70995C47.7174 2.30945 47.75 2.05996 47.75 1.7842C47.75 1.4034 47.7174 1.02259 47.6586 0.838755Z" fill="#555861"/>
</svg>
