<svg width="33" height="37" viewBox="0 0 33 37" fill="none" xmlns="http://www.w3.org/2000/svg">
<path d="M32.6784 9.00849C32.6784 8.84257 32.6742 8.83406 32.5016 8.83832C32.0848 8.83832 31.6722 8.79152 31.2638 8.7277C29.7777 8.50222 24.953 5.94528 24.1362 1.76315C24.1194 1.68232 23.9383 0.64423 23.9383 0.201766C23.9383 0.00606064 23.9383 0.00180566 23.7447 0.00180566C23.6984 0.00180566 23.6563 0.00180566 23.6099 0.00180566C21.7238 0.00180566 19.8335 0.00180566 17.9474 0.00180566C17.5685 0.00180566 17.619 -0.044993 17.619 0.337908C17.619 8.60858 17.619 16.8792 17.619 25.1499C17.619 25.4605 17.6106 25.7668 17.5559 26.0689C17.2696 27.6686 16.4612 28.9236 15.0888 29.7788C13.9015 30.519 12.609 30.7318 11.2366 30.4552C10.8029 30.3701 10.3987 30.2042 9.99458 30.0425C9.9609 30.0128 9.92722 29.983 9.89775 29.9532C9.76303 29.8383 9.61146 29.7405 9.46411 29.6384C7.71693 28.4173 6.88755 26.7198 7.14015 24.5968C7.39697 22.4441 8.6221 20.9805 10.6429 20.2275C11.245 20.002 11.8807 19.9084 12.5248 19.9467C12.9416 19.968 13.3542 20.0233 13.7542 20.1382C13.8931 20.1764 13.9689 20.1297 13.9773 19.9807C13.9773 19.9297 13.9773 19.8744 13.9773 19.8233C13.9773 18.3385 13.9226 15.0966 13.9142 15.0881C13.9142 14.6627 13.9142 14.233 13.9268 13.8075C13.9268 13.6841 13.8678 13.6629 13.7668 13.6501C13.0048 13.5608 12.2428 13.5395 11.4765 13.5991C10.4198 13.6756 9.39254 13.8969 8.39475 14.2585C6.80335 14.8371 5.40981 15.7305 4.20573 16.9218C3.17006 17.9471 2.35752 19.1299 1.7639 20.4658C1.19133 21.7421 0.867149 23.0823 0.774527 24.4777C0.736637 25.0818 0.740849 25.6902 0.79979 26.2986C0.875571 27.1367 1.03555 27.9579 1.28816 28.7619C2.01229 31.0679 3.33425 32.9568 5.20773 34.4587C5.39719 34.6118 5.58243 34.7778 5.80977 34.8756C5.9066 34.9607 5.99922 35.0458 6.09605 35.1309C6.39918 35.3606 6.72336 35.5606 7.06437 35.7265C9.16099 36.7731 11.3713 37.1985 13.6994 36.9135C16.7223 36.5391 19.2399 35.1862 21.2186 32.8547C23.0837 30.6594 23.9888 28.0855 24.0057 25.2052C24.031 21.0869 24.0099 16.9686 24.0141 12.846C24.0141 12.7482 23.9594 12.6078 24.0646 12.5567C24.1488 12.5184 24.233 12.629 24.313 12.6843C25.8286 13.6927 27.4664 14.4202 29.2388 14.8286C30.2703 15.0668 31.3102 15.2115 32.3711 15.2115C32.7037 15.2115 32.75 15.1945 32.75 14.8584C32.75 13.3948 32.6742 9.39565 32.6784 9.00849Z" fill="#555861"/>
</svg>
