<svg width="20" height="20" viewBox="0 0 20 20" fill="none" xmlns="http://www.w3.org/2000/svg">
<path d="M15.877 16.725C15.1783 15.7999 14.2743 15.0496 13.2362 14.5334C12.1981 14.0171 11.0544 13.749 9.89503 13.75C8.73568 13.749 7.59192 14.0171 6.55385 14.5334C5.51578 15.0496 4.61177 15.7999 3.91303 16.725M15.877 16.725C17.2405 15.5122 18.2021 13.9136 18.6362 12.1411C19.0703 10.3686 18.9553 8.5061 18.3065 6.80049C17.6577 5.09488 16.5058 3.62679 15.0034 2.59091C13.5011 1.55503 11.7194 1.00031 9.89453 1.00031C8.06969 1.00031 6.28797 1.55503 4.78564 2.59091C3.28331 3.62679 2.13136 5.09488 1.48257 6.80049C0.833773 8.5061 0.718784 10.3686 1.15285 12.1411C1.58692 13.9136 2.54953 15.5122 3.91303 16.725M15.877 16.725C14.2311 18.1932 12.1007 19.0032 9.89503 19C7.68906 19.0034 5.55927 18.1934 3.91303 16.725M12.895 7.75001C12.895 8.54566 12.579 9.30872 12.0164 9.87133C11.4537 10.4339 10.6907 10.75 9.89503 10.75C9.09938 10.75 8.33632 10.4339 7.77371 9.87133C7.2111 9.30872 6.89503 8.54566 6.89503 7.75001C6.89503 6.95436 7.2111 6.1913 7.77371 5.62869C8.33632 5.06608 9.09938 4.75001 9.89503 4.75001C10.6907 4.75001 11.4537 5.06608 12.0164 5.62869C12.579 6.1913 12.895 6.95436 12.895 7.75001Z" stroke="black" stroke-width="1.5" stroke-linecap="round" stroke-linejoin="round"/>
</svg>
