<svg width="60" height="41" viewBox="0 0 60 41" fill="none" xmlns="http://www.w3.org/2000/svg">
<path d="M58.5176 6.40381C57.8423 3.88524 55.8429 1.90032 53.2993 1.22349C48.6973 -1.78435e-06 30.25 0 30.25 0C30.25 0 11.8027 -1.78435e-06 7.20066 1.22349C4.66366 1.90032 2.66422 3.87873 1.98244 6.40381C0.749998 10.9724 0.75 20.5 0.75 20.5C0.75 20.5 0.749998 30.0276 1.98244 34.5962C2.65766 37.1148 4.65711 39.0997 7.20066 39.7765C11.8027 41 30.25 41 30.25 41C30.25 41 48.6973 41 53.2993 39.7765C55.8363 39.0997 57.8358 37.1213 58.5176 34.5962C59.75 30.0276 59.75 20.5 59.75 20.5C59.75 20.5 59.75 10.9724 58.5176 6.40381ZM24.35 29.2922V11.7208L39.6769 20.5065L24.35 29.2922Z" fill="#555861"/>
</svg>
